<?xml version="1.0" encoding="utf-8"?>
<!-- Generator: Adobe Illustrator 21.0.2, SVG Export Plug-In . SVG Version: 6.00 Build 0)  -->
<svg version="1.1" xmlns="http://www.w3.org/2000/svg" xmlns:xlink="http://www.w3.org/1999/xlink" x="0px" y="0px"
	 viewBox="0 0 128 128" style="enable-background:new 0 0 128 128;" xml:space="preserve">
<style type="text/css">
	.st0{fill:#FFFFFF;}
</style>
<g id="Layer_2">
	<circle class="st0" cx="63.9" cy="67" r="61"/>
</g>
<g id="Capa_1">
	<g>
		<path d="M119.1,33.6c-5.7-9.7-13.4-17.5-23.1-23.1C86.2,4.8,75.5,2,64,2s-22.2,2.8-31.9,8.5S14.6,23.9,9,33.6
			c-5.7,9.8-8.6,20.4-8.6,32c0,13.9,4,26.3,12.1,37.4s18.5,18.7,31.3,23c1.5,0.3,2.6,0.1,3.3-0.6s1.1-1.5,1.1-2.5c0-0.2,0-1.7,0-4.5
			s0-5.3,0-7.4l-1.9,0.3c-1.2,0.2-2.7,0.3-4.6,0.3c-1.8,0-3.8-0.2-5.8-0.6s-3.8-1.2-5.5-2.5s-2.9-3-3.6-5.1l-0.8-1.9
			c-0.6-1.3-1.4-2.7-2.6-4.2s-2.4-2.6-3.6-3.1l-0.6-0.4c-0.4-0.3-0.7-0.6-1.1-1c-0.3-0.4-0.6-0.8-0.7-1.2c-0.2-0.4,0-0.7,0.4-1
			c0.4-0.2,1.2-0.4,2.4-0.4l1.7,0.2c1.1,0.2,2.5,0.9,4.1,2s3,2.5,4,4.3c1.3,2.3,2.8,4,4.6,5.2s3.6,1.8,5.4,1.8s3.4-0.1,4.7-0.4
			s2.6-0.7,3.7-1.2c0.5-3.7,1.8-6.5,4.1-8.5c-3.1-0.3-6-0.8-8.5-1.5s-5.1-1.7-7.8-3.2s-4.9-3.3-6.7-5.5c-1.8-2.2-3.2-5.1-4.3-8.7
			c-1.1-3.6-1.7-7.7-1.7-12.4c0-6.7,2.2-12.4,6.5-17.1c-2-5-1.8-10.7,0.6-16.9c1.6-0.5,4-0.1,7.1,1.1s5.5,2.3,6.9,3.2
			c1.5,0.9,2.6,1.6,3.5,2.2c5.1-1.4,10.4-2.2,15.9-2.2s10.8,0.7,15.9,2.2l3.1-2c2.2-1.3,4.7-2.5,7.6-3.6s5.2-1.4,6.7-0.9
			c2.5,6.2,2.7,11.9,0.7,16.9c4.4,4.7,6.5,10.4,6.5,17.1c0,4.7-0.6,8.8-1.7,12.5c-1.1,3.6-2.6,6.5-4.4,8.7s-4,4-6.7,5.5
			s-5.3,2.6-7.8,3.2c-2.5,0.7-5.3,1.2-8.5,1.5c2.9,2.5,4.3,6.4,4.3,11.8V123c0,1,0.3,1.8,1,2.5s1.8,0.9,3.3,0.6
			c12.8-4.2,23.3-11.9,31.3-23c8.1-11.1,12.1-23.5,12.1-37.4C127.6,54,124.7,43.4,119.1,33.6z"/>
	</g>
</g>
</svg>
