<?xml version="1.0" encoding="utf-8"?>
<!-- Generator: Adobe Illustrator 21.0.2, SVG Export Plug-In . SVG Version: 6.00 Build 0)  -->
<svg version="1.1" xmlns="http://www.w3.org/2000/svg" xmlns:xlink="http://www.w3.org/1999/xlink" x="0px" y="0px"
	 viewBox="0 0 128 128" style="enable-background:new 0 0 128 128;" xml:space="preserve">
<style type="text/css">
	.st0{fill:#FFFFFF;stroke:#000000;stroke-miterlimit:10;}
	.st1{fill:#010101;}
</style>
<g id="Layer_2">
	<circle class="st0" cx="64" cy="70" r="48"/>
</g>
<g id="Layer_1">
	<path class="st1" d="M100.3,94.5V69.7c0-13.3-7.1-19.5-16.6-19.5c-7.7,0-11.1,4.2-13,7.2v-6.1H56.2c0.2,4.1,0,43.4,0,43.4h14.4
		V70.3c0-1.3,0.1-2.6,0.5-3.5c1-2.6,3.4-5.3,7.4-5.3c5.2,0,7.3,4,7.3,9.8v23.2H100.3L100.3,94.5z M41,45.2c5,0,8.2-3.3,8.2-7.5
		c-0.1-4.3-3.1-7.5-8.1-7.5S33,33.4,33,37.7C33,41.9,36.1,45.2,41,45.2L41,45.2z M64.5,128.3c-35.2,0-63.8-28.5-63.8-63.8
		c0-35.2,28.5-63.8,63.8-63.8s63.8,28.5,63.8,63.8C128.3,99.7,99.7,128.3,64.5,128.3z M48.3,94.5V51.1H33.8v43.4H48.3z"/>
</g>
</svg>
